<?xml version="1.0" standalone="yes"?>
<svg xmlns="http://www.w3.org/2000/svg" width="208" height="250">
<path style="fill:#010101; stroke:none;" d="M0 0L0 250L208 250L208 0L0 0z"/>
<path style="fill:#fbfc4b; stroke:none;" d="M94 45C83.2926 50.1135 75.9309 70.6709 70.7531 81C63.1723 96.1227 56.8786 115.653 46.3627 128.895C42.0562 134.318 34.2286 136.648 29.0394 141.3C16.4788 152.561 16.0017 164.362 16 180L29 180C29 188.637 31.8031 194.974 32.8673 203.039C33.7465 209.704 33.0559 217.232 37.4151 222.91C41.4003 228.101 50.2332 234.916 56.3511 228.566C67.4802 217.016 66.0192 190.191 80.3904 181.028C84.7904 178.222 92.2063 180.582 97 180.91C106.079 181.532 116.073 180.657 125 179C129.706 198.811 143.619 218.579 161 229.074C168.966 233.884 186.186 236.571 189.562 223.985C191.708 215.986 184.284 213.004 180.888 207.282C178.15 202.668 178.101 194.305 176.881 189C169.448 156.663 168.17 123.261 160.105 91C156.272 75.6695 151.484 57.5409 141.482 45.0039C137.955 40.5829 133.535 39.7613 129.515 36.412C125.788 33.3068 123.427 28.4888 119.961 25.0401C114.113 19.2229 95.32 10.2598 90.7431 22.0154C88.3862 28.069 92.5183 38.8477 94 45z"/>
<path style="fill:#6aa08b; stroke:none;" d="M98 25L99 26L98 25z"/>
<path style="fill:#035eb8; stroke:none;" d="M99 25L101 75L102 75L107 52L108 52C112.514 75.2764 104.613 96.2562 94.2407 117C90.675 124.131 87.1987 135.47 78 135L90 104C81.2033 111.162 75.3781 133.16 64 135C75.2224 108.045 95.5526 81.9642 98 52L97 52C80.7791 78.5034 70.3817 109.027 53.6481 134.945C50.5319 139.772 44.5839 141.053 40 144.105C33.4242 148.483 28.3535 154.911 25 162C33.9335 156.092 41.5615 149.347 52 146.029C76.0132 138.395 101.515 147 126 147L126 151C108.604 151 87.9363 147.968 71 152L71 153C90.1375 158.431 109.069 162.519 129 160L129 165C108.182 165 87.7493 162 67 162C60.0416 162 49.5682 160.342 43.3935 164.314C37.0213 168.413 36.5038 184.489 38 191L39 191L47 167L49 167C49.4069 173.164 46.0634 179.044 44.6543 185C42.0275 196.104 41.1248 206.887 44 218L45 218C48.034 205.685 51.3155 193.741 56.284 182C58.4849 176.799 59.8229 171.005 66 170C56.8981 185.594 49.3766 203.756 49 222L50 222C55.7782 209.647 61.1357 197.222 67.2469 185C69.3316 180.831 71.4421 173.51 76.1049 171.603C81.7422 169.299 90.1584 171.274 96 171.83C107.006 172.878 120.21 172.511 130 167C137.4 189.741 148.688 217.708 174 225L174 224C133.826 193.72 131.675 135.516 124.08 90C120.87 70.7636 115.652 37.2927 99 25z"/>
<path style="fill:#6aa08b; stroke:none;" d="M100 25L101 26L100 25M101 26L102 27L101 26M102 27L103 28L102 27M107.333 27.6667L107.667 28.3333L107.333 27.6667z"/>
<path style="fill:#035eb8; stroke:none;" d="M108 27C110.178 39.2203 118.67 51.0758 122.645 63C128.994 82.0456 131.648 102.364 135.6 122C137.303 130.459 138.414 148.973 146 154C145.747 123.407 141.251 89.7794 130.424 61C125.577 48.1168 119.665 34.9986 108 27z"/>
<path style="fill:#6aa08b; stroke:none;" d="M109 27L110 28L109 27M99.3333 28.6667L99.6667 29.3333L99.3333 28.6667M110 28L111 29L110 28M111 29L112 30L111 29M104 30L105 31L104 30M108 30L109 31L108 30M112 30L113 31L112 30M113 31L114 32L113 31M100.333 32.6667L100.667 33.3333L100.333 32.6667M109 32L110 33L109 32M106 33L107 34L106 33M110 34L111 35L110 34M116 34L117 35L116 34M107 35L108 36L107 35M117 35L118 36L117 35M101.333 36.6667L101.667 37.3333L101.333 36.6667M111 36L112 37L111 36M108 37L109 38L108 37M112 38L113 39L112 38M119 38L120 39L119 38M109 39L110 40L109 39M113 40L114 41L113 40M121 41L122 42L121 41M110 42L111 43L110 42M114 42L115 43L114 42M122 43L123 44L122 43M102 44L102 52L103 52L102 44M111 44L112 45L111 44M115 44L116 45L115 44M123 45L124 46L123 45M112.333 46.6667L112.667 47.3333L112.333 46.6667M130.333 46.6667L130.667 47.3333L130.333 46.6667M116 47L117 48L116 47M124 47L125 48L124 47z"/>
<path style="fill:#035eb8; stroke:none;" d="M131 47C133.429 61.1173 140.096 74.7724 142.996 89C147.783 112.487 149.028 136.511 153.801 160C156.464 173.108 160.449 193.956 171 203C163.229 165.329 160.809 126.019 150.29 89C146.294 74.9363 142.345 57.077 131 47z"/>
<path style="fill:#6aa08b; stroke:none;" d="M113 49L114 50L113 49M117 49L118 50L117 49M125 49L126 50L125 49M133 49L134 50L133 49M131 50L132 51L131 50M134 50L135 51L134 50M118.333 51.6667L118.667 52.3333L118.333 51.6667M126 51L127 52L126 51M135 51L136 52L135 51M107.333 52.6667L107.667 53.3333L107.333 52.6667M114 52L115 53L114 52M132.333 52.6667L132.667 53.3333L132.333 52.6667M127 53L128 54L127 53M136 53L137 54L136 53M95 54L96 55L95 54M108.333 54.6667L108.667 55.3333L108.333 54.6667M115.333 54.6667L115.667 55.3333L115.333 54.6667M119 54L120 55L119 54M128 55L129 56L128 55M133 55L134 56L133 55M94 56L95 57L94 56M97.3333 56.6667L97.6667 57.3333L97.3333 56.6667M138 56L139 57L138 56M116.333 57.6667L116.667 58.3333L116.333 57.6667M120 57L121 58L120 57M101 58L101 63L102 63L101 58M106.333 58.6667L106.667 59.3333L106.333 58.6667M129 58L130 59L129 58M134 58L135 59L134 58M139 58L140 59L139 58M92 59L93 60L92 59M109 59L109 66L110 66L109 59M121.333 59.6667L121.667 60.3333L121.333 59.6667M96.3333 60.6667L96.6667 61.3333L96.3333 60.6667M117.333 60.6667L117.667 61.3333L117.333 60.6667M130.333 60.6667L130.667 61.3333L130.333 60.6667M135.333 60.6667L135.667 61.3333L135.333 60.6667M140 60L141 61L140 60M91 61L92 62L91 61M122.333 62.6667L122.667 63.3333L122.333 62.6667M141 62L142 63L141 62M90 63L91 64L90 63M105.333 63.6667L105.667 64.3333L105.333 63.6667M131 63L132 64L131 63M136.333 63.6667L136.667 64.3333L136.333 63.6667M95 64L96 65L95 64M118.333 64.6667L118.667 65.3333L118.333 64.6667M89 65L90 66L89 65M123.333 65.6667L123.667 66.3333L123.333 65.6667M142 65L143 66L142 65M88 66L89 67L88 66M132 66L133 67L132 66M94.3333 67.6667L94.6667 68.3333L94.3333 67.6667M104.333 67.6667L104.667 68.3333L104.333 67.6667M137 67L138 68L137 67M143 67L144 68L143 67M87 68L88 69L87 68M119 68L120 69L119 68M109 69L109 74L110 74L109 69M124.333 69.6667L124.667 70.3333L124.333 69.6667M133.333 69.6667L133.667 70.3333L133.333 69.6667M86 70L87 71L86 70M93.3333 70.6667L93.6667 71.3333L93.3333 70.6667M100 70L100 75L101 75L100 70M103.333 70.6667L103.667 71.3333L103.333 70.6667M138.333 70.6667L138.667 71.3333L138.333 70.6667M144 70L145 71L144 70M120.333 71.6667L120.667 72.3333L120.333 71.6667z"/>
<path style="fill:#ffff36; stroke:none;" d="M75 72L76 73L75 72z"/>
<path style="fill:#6aa08b; stroke:none;" d="M85 72L86 73L85 72M125.333 72.6667L125.667 73.3333L125.333 72.6667M134.333 72.6667L134.667 73.3333L134.333 72.6667z"/>
<path style="fill:#ffff36; stroke:none;" d="M154 72L155 73L154 72z"/>
<path style="fill:#6aa08b; stroke:none;" d="M92.3333 73.6667L92.6667 74.3333L92.3333 73.6667M102.333 73.6667L102.667 74.3333L102.333 73.6667M145 73L146 74L145 73M84 74L85 75L84 74M139 74L140 75L139 74M83 75L84 76L83 75M101 75L102 76L101 75M146.333 75.6667L146.667 76.3333L146.333 75.6667M91.3333 76.6667L91.6667 77.3333L91.3333 76.6667M108 76L108 79L109 79L108 76M121.333 76.6667L121.667 77.3333L121.333 76.6667M126.333 76.6667L126.667 77.3333L126.333 76.6667M135.333 76.6667L135.667 77.3333L135.333 76.6667M82 77L83 78L82 77M140.333 77.6667L140.667 78.3333L140.333 77.6667M147.333 78.6667L147.667 79.3333L147.333 78.6667M81 79L82 80L81 79M90 79L91 80L90 79M122.333 80.6667L122.667 81.3333L122.333 80.6667M136.333 80.6667L136.667 81.3333L136.333 80.6667M80 81L81 82L80 81M127.333 81.6667L127.667 82.3333L127.333 81.6667M89 82L90 83L89 82M107.333 82.6667L107.667 83.3333L107.333 82.6667M141.333 82.6667L141.667 83.3333L141.333 82.6667M148 82L149 83L148 82M79 83L80 84L79 83M88 84L89 85L88 84M78 85L79 86L78 85M114 85L115 91L116 91L114 85M123.333 85.6667L123.667 86.3333L123.333 85.6667M128 85L128 88L129 88L128 85M137.333 85.6667L137.667 86.3333L137.333 85.6667M149.333 85.6667L149.667 86.3333L149.333 85.6667M106 86L107 87L106 86M142 86L142 89L143 89L142 86M77 87L78 88L77 87M87 87L88 88L87 87z"/>
<path style="fill:#fbfc4b; stroke:none;" d="M114 87L94 136L123 139L118.13 109L114 87z"/>
<path style="fill:#010101; stroke:none;" d="M96 88L97 89L96 88z"/>
<path style="fill:#6aa08b; stroke:none;" d="M113.333 88.6667L113.667 89.3333L113.333 88.6667M150.333 88.6667L150.667 89.3333L150.333 88.6667M76 89L77 90L76 89M86 89L87 90L86 89z"/>
<path style="fill:#ffff36; stroke:none;" d="M96 89L97 90L96 89z"/>
<path style="fill:#6aa08b; stroke:none;" d="M105.333 89.6667L105.667 90.3333L105.333 89.6667M138 89L138 92L139 92L138 89M124 90L124 93L125 93L124 90M129 90L129 93L130 93L129 90M85 91L86 92L85 91z"/>
<path style="fill:#010101; stroke:none;" d="M95 91L94 94L95 91z"/>
<path style="fill:#6aa08b; stroke:none;" d="M143 91L143 94L144 94L143 91M104.333 92.6667L104.667 93.3333L104.333 92.6667M112 92L113 93L112 92M151.333 92.6667L151.667 93.3333L151.333 92.6667M84 93L85 94L84 93M73 94L74 95L73 94M116 94L116 98L117 98L116 94M139.333 94.6667L139.667 95.3333L139.333 94.6667M83 95L84 96L83 95M103.333 95.6667L103.667 96.3333L103.333 95.6667M111.333 95.6667L111.667 96.3333L111.333 95.6667M72 96L73 97L72 96M125 96L125 99L126 99L125 96M130.333 96.6667L130.667 97.3333L130.333 96.6667M152.333 96.6667L152.667 97.3333L152.333 96.6667M82 97L83 98L82 97M144 97L144 100L145 100L144 97M71 98L72 99L71 98M102 98L103 99L102 98M110.333 98.6667L110.667 99.3333L110.333 98.6667M81 99L82 100L81 99M140 99L140 102L141 102L140 99M70 100L71 101L70 100M101.333 100.667L101.667 101.333L101.333 100.667M153.333 100.667L153.667 101.333L153.333 100.667M80 101L81 102L80 101M109 101L110 102L109 101M131.333 101.667L131.667 102.333L131.333 101.667M69 102L70 103L69 102M117 102L117 105L118 105L117 102M126 102L126 105L127 105L126 102M79 103L80 104L79 103M89.6667 103.333L90.3333 103.667L89.6667 103.333M100 103L101 104L100 103M108.333 103.667L108.667 104.333L108.333 103.667M145 103L145 106L146 106L145 103M68 104L69 105L68 104M88 104L89 105L88 104M141 104L141 107L142 107L141 104M78 105L79 106L78 105M87 105L88 106L87 105M99 105L100 106L99 105M154.333 105.667L154.667 106.333L154.333 105.667M67 106L68 107L67 106M89.3333 106.667L89.6667 107.333L89.3333 106.667M107 106L108 107L107 106M132.333 106.667L132.667 107.333L132.333 106.667M77 107L78 108L77 107M86 107L87 108L86 107M98 107L99 108L98 107M66 108L67 109L66 108M85 108L86 109L85 108M106.333 108.667L106.667 109.333L106.333 108.667M127 108L127 111L128 111L127 108M76 109L77 110L76 109M88.3333 109.667L88.6667 110.333L88.3333 109.667M118 109L118 112L119 112L118 109M65 110L66 111L65 110M142 110L142 113L143 113L142 110M146 110L146 113L147 113L146 110M155.333 110.667L155.667 111.333L155.333 110.667M75 111L76 112L75 111M83 111L84 112L83 111M105 111L106 112L105 111M133.333 111.667L133.667 112.333L133.333 111.667M64 112L65 113L64 112M87.3333 112.667L87.6667 113.333L87.3333 112.667M96 112L97 113L96 112M74 113L75 114L74 113M104 113L105 114L104 113M63 114L64 115L63 114M81 114L82 115L81 114M95 114L96 115L95 114M73 115L74 116L73 115M86 115L87 116L86 115M103 115L104 116L103 115M119 115L119 118L120 118L119 115M128 115L128 118L129 118L128 115M156 115L156 118L157 118L156 115M62 116L63 117L62 116M94 116L95 117L94 116M134.333 116.667L134.667 117.333L134.333 116.667M143 116L143 120L144 120L143 116M72 117L73 118L72 117M79 117L80 118L79 117M102 117L103 118L102 117M147 117L147 121L148 121L147 117M85 118L86 119L85 118M93 118L94 119L93 118M71 119L72 120L71 119M77 120L78 121L77 120M84 120L85 121L84 120M92 120L93 121L92 120M101 120L102 121L101 120M60 121L61 122L60 121M70 121L71 122L70 121z"/>
<path style="fill:#010101; stroke:none;" d="M110 121L107 130L113 130L112 121L110 121z"/>
<path style="fill:#6aa08b; stroke:none;" d="M120 121L120 124L121 124L120 121M129 121L129 124L130 124L129 121M135.333 121.667L135.667 122.333L135.333 121.667M157.333 121.667L157.667 122.333L157.333 121.667M91 122L92 123L91 122M100 122L101 123L100 122M59 123L60 124L59 123M69 123L70 124L69 123M75 123L76 124L75 123M83 123L84 124L83 123M99 124L100 125L99 124M144 124L144 128L145 128L144 124M58 125L59 126L58 125M68 125L69 126L68 125M82 125L83 126L82 125M148 125L148 129L149 129L148 125M73 126L74 127L73 126M98 126L99 127L98 126M136.333 126.667L136.667 127.333L136.333 126.667M57 127L58 128L57 127M67 127L68 128L67 127M81 127L82 128L81 127M88 127L89 128L88 127M121.333 127.667L121.667 128.333L121.333 127.667M130 127L130 130L131 130L130 127M158 127L158 130L159 130L158 127M97 128L98 129L97 128M56 129L57 130L56 129M66 129L67 130L66 129M71 129L72 130L71 129M87 129L88 130L87 129M80 130L81 131L80 130M96 130L97 131L96 130M137 130L137 133L138 133L137 130M55 131L56 132L55 131M65 131L66 132L65 131M70 131L71 132L70 131M86 131L87 132L86 131M79 132L80 133L79 132M95 132L96 133L95 132M122.333 132.667L122.667 133.333L122.333 132.667M54 133L55 134L54 133M85 133L86 134L85 133M131 133L131 136L132 136L131 133M149 133L149 137L150 137L149 133M159 133L159 136L160 136L159 133M68 134L69 135L68 134M78 134L79 135L78 134M94 134L95 135L94 134M53 135L54 136L53 135M81 135L81 136L84 136L81 135M138.333 135.667L138.667 136.333L138.333 135.667M94.6667 136.333L95.3333 136.667L94.6667 136.333M145 136L145 147L146 147L145 136M52 137L53 138L52 137M101 137L101 138L105 138L101 137M123 137L116 139L116 140C118.572 139.998 124.458 140.869 123 137M51 138L52 139L51 138M108 138L108 139L112 139L108 138M48 139L49 140L48 139M132 139L132 142L133 142L132 139M139.333 139.667L139.667 140.333L139.333 139.667M46 140L47 141L46 140M160 140L160 144L161 144L160 140M44 141L45 142L44 141M150 141L150 144L151 144L150 141M42 142L43 143L42 142M40 143L41 144L40 143M62 143L62 144L67 144L62 143M80 143L80 144L87 144L80 143M140 143L141 144L140 143z"/>
<path style="fill:#ffff36; stroke:none;" d="M169 143L170 144L169 143z"/>
<path style="fill:#6aa08b; stroke:none;" d="M39 144L40 145L39 144M57.6667 144.333L58.3333 144.667L57.6667 144.333M91 144L91 145L94 145L91 144M53 145L54 146L53 145M98 145L98 146L101 146L98 145M133.333 145.667L133.667 146.333L133.333 145.667M50 146L51 147L50 146M105 146L105 147L108 147L105 146M141.333 146.667L141.667 147.333L141.333 146.667M35 147L36 148L35 147M47.6667 147.333L48.3333 147.667L47.6667 147.333M117 147L117 148L126 148L117 147M151 147L151 150L152 150L151 147M161 147L161 151L162 151L161 147M34 148L35 149L34 148M45 148L46 149L45 148M33 149L34 150L33 149M43 149L44 150L43 149M32 150L33 151L32 150M41 150L42 151L41 150M79 150L79 151L111 151L79 150M124.667 150.333L125.333 150.667L124.667 150.333M134.333 150.667L134.667 151.333L134.333 150.667M142 150L143 151L142 150M39 151L40 152L39 151M72 151L73 152L72 151M50.6667 152.333L51.3333 152.667L50.6667 152.333M143 152L144 153L143 152z"/>
<path style="fill:#ffff36; stroke:none;" d="M19 153L20 154L19 153z"/>
<path style="fill:#6aa08b; stroke:none;" d="M36 153L37 154L36 153M45.6667 153.333L46.3333 153.667L45.6667 153.333z"/>
<path style="fill:#035eb8; stroke:none;" d="M25 171L53 154C41.6734 149.38 28.9347 161.614 25 171z"/>
<path style="fill:#6aa08b; stroke:none;" d="M72 153L73 154L72 153M152 153L152 156L153 156L152 153M29 154L30 155L29 154M34 154L35 155L34 154M41.6667 154.333L42.3333 154.667L41.6667 154.333M52 154L53 155L52 154M75.6667 154.333L76.3333 154.667L75.6667 154.333M135.333 154.667L135.667 155.333L135.333 154.667M144.667 154.333L145.333 154.667L144.667 154.333M162 154L162 158L163 158L162 154M28 155L29 156L28 155M33 155L34 156L33 155M39 155L40 156L39 155M50 155L51 156L50 155M79 155L80 156L79 155M37 156L38 157L37 156M48 156L49 157L48 156M82.6667 156.333L83.3333 156.667L82.6667 156.333M27 157L28 158L27 157M35 157L36 158L35 157M46 157L47 158L46 157M86 157L86 158L89 158L86 157M26 158L27 159L26 158M29 158L30 159L29 158M34 158L35 159L34 158M45 158L46 159L45 158M91.6667 158.333L92.3333 158.667L91.6667 158.333M136.333 158.667L136.667 159.333L136.333 158.667M153.333 158.667L153.667 159.333L153.333 158.667M28 159L29 160L28 159M32 159L33 160L32 159M43 159L44 160L43 159M96 159L96 160L99 160L96 159M25 160L26 161L25 160M27 160L28 161L27 160M31 160L32 161L31 160M103 160L103 161L107 161L103 160M125.667 160.333L126.333 160.667L125.667 160.333M128.333 160.667L128.667 161.333L128.333 160.667M26 161L27 162L26 161M30 161L31 162L30 161M40 161L41 162L40 161M56 161L56 162L78 162L56 161M163 161L163 165L164 165L163 161M24 162L24 164L26 162L24 162M29 162L30 163L29 162M38 162L39 163L38 162M47 162L47 163L50 163L47 162M83 162L83 163L87 163L83 162M28 163L29 164L28 163M37 163L38 164L37 163M43.6667 163.333L44.3333 163.667L43.6667 163.333M92 163L92 164L96 164L92 163M137 163L138 164L137 163M154.333 163.667L154.667 164.333L154.333 163.667M35 164L36 165L35 164M100 164L100 165L104 165L100 164M126 164L126 165L129 165L126 164M27 165L28 166L27 165M41 165L42 166L41 165M117 165L118 166L117 165M32 166L33 167L32 166M138.333 166.667L138.667 167.333L138.333 166.667M26 167L27 168L26 167M40 167L41 168L40 167M47.6667 167.333L48.3333 167.667L47.6667 167.333M129 167L130 168L129 167M155.333 167.667L155.667 168.333L155.333 167.667M29 168L30 169L29 168M46 168L47 169L46 168M127 168L128 169L127 168M130 168L131 169L130 168M164 168L164 171L165 171L164 168z"/>
<path style="fill:#ffff36; stroke:none;" d="M16 169L17 170L16 169z"/>
<path style="fill:#6aa08b; stroke:none;" d="M25 169L26 170L25 169M28 169L29 170L28 169M125 169L126 170L125 169M139.333 169.667L139.667 170.333L139.333 169.667M39 170L40 171L39 170M45 170L46 171L45 170M49 170L50 171L49 170M65 170L66 171L65 170M121.667 170.333L122.333 170.667L121.667 170.333M25 171L26 172L25 171M84 171L84 172L94 172L84 171M114 171L114 172L118 172L114 171M131 171L132 172L131 171M156 171L157 172L156 171M48 172L49 173L48 172M60 172L61 173L60 172M64 172L65 173L64 172M73 172L74 173L73 172M44 173L45 174L44 173M140 173L141 174L140 173M38.3333 174.667L38.6667 175.333L38.3333 174.667M59 174L60 175L59 174M63 174L64 175L63 174M72 174L73 175L72 174M132 174L133 175L132 174M157.333 174.667L157.667 175.333L157.333 174.667M165 174L165 177L166 177L165 174M43.3333 175.667L43.6667 176.333L43.3333 175.667M47 175L48 176L47 175M58 176L59 177L58 176M62 176L63 177L62 176M71 176L72 177L71 176M141 176L142 177L141 176M46.3333 177.667L46.6667 178.333L46.3333 177.667M133 177L134 178L133 177M42 178L43 179L42 178M61 178L62 179L61 178M70 178L71 179L70 178M142.333 178.667L142.667 179.333L142.333 178.667M158 178L159 179L158 178M37 179L37 184L38 184L37 179M57 179L58 180L57 179M134.333 179.667L134.667 180.333L134.333 179.667M60 180L61 181L60 180M69 180L70 181L69 180z"/>
<path style="fill:#ffff36; stroke:none;" d="M93 180L94 181L93 180z"/>
<path style="fill:#6aa08b; stroke:none;" d="M159.333 180.667L159.667 181.333L159.333 180.667M166 180L166 183L167 183L166 180M41 181L42 182L41 181M45 181L46 182L45 181M56 181L57 182L56 181M143.333 181.667L143.667 182.333L143.333 181.667M151.333 181.667L151.667 182.333L151.333 181.667z"/>
<path style="fill:#035eb8; stroke:none;" d="M152 181C152.783 198.953 163.957 216.197 181 222L166.756 205L152 181z"/>
<path style="fill:#6aa08b; stroke:none;" d="M59 182L60 183L59 182M68 182L69 183L68 182M135 182L136 183L135 182M153 182L154 183L153 182M55.3333 183.667L55.6667 184.333L55.3333 183.667M160 183L161 184L160 183M40.3333 184.667L40.6667 185.333L40.3333 184.667M44.3333 184.667L44.6667 185.333L44.3333 184.667M58.3333 184.667L58.6667 185.333L58.3333 184.667M67 184L68 185L67 184M136 184L137 185L136 184M144 184L145 185L144 184M154 184L155 185L154 184M54 186L55 187L54 186M66 186L67 187L66 186M145 186L146 187L145 186M152.333 186.667L152.667 187.333L152.333 186.667M155 186L156 187L155 186M161 186L162 187L161 186M167.333 186.667L167.667 187.333L167.333 186.667z"/>
<path style="fill:#ffff36; stroke:none;" d="M28 187L29 188L28 187z"/>
<path style="fill:#6aa08b; stroke:none;" d="M39.3333 187.667L39.6667 188.333L39.3333 187.667M57 187L58 188L57 187M137 187L138 188L137 187z"/>
<path style="fill:#ffff36; stroke:none;" d="M176 187L177 188L176 187z"/>
<path style="fill:#6aa08b; stroke:none;" d="M65 188L66 189L65 188M146 188L147 189L146 188M156 188L157 189L156 188M162 188L163 189L162 188M37.3333 189.667L37.6667 190.333L37.3333 189.667M43.3333 189.667L43.6667 190.333L43.3333 189.667M53 189L54 190L53 189M56 189L57 190L56 189M138 189L139 190L138 189M64 190L65 191L64 190M153 190L154 191L153 190M157 190L158 191L157 190M168.333 190.667L168.667 191.333L168.333 190.667M38 191L39 192L38 191M52.3333 191.667L52.6667 192.333L52.3333 191.667M139 191L140 192L139 191M147 191L148 192L147 191M163 191L164 192L163 191M55 192L56 193L55 192M63 192L64 193L63 192M140 193L141 194L140 193M148 193L149 194L148 193M154 193L155 194L154 193M159 193L160 194L159 193M164 193L165 194L164 193M42 194L42 198L43 198L42 194M51.3333 194.667L51.6667 195.333L51.3333 194.667M54 194L55 195L54 194M149 194L150 195L149 194M141 195L142 196L141 195M155.333 195.667L155.667 196.333L155.333 195.667M160 195L161 196L160 195M165 195L166 196L165 195M169.333 195.667L169.667 196.333L169.333 195.667M53.3333 196.667L53.6667 197.333L53.3333 196.667M150 196L151 197L150 196M50.3333 197.667L50.6667 198.333L50.3333 197.667M60.3333 197.667L60.6667 198.333L60.3333 197.667M161 197L162 198L161 197M166 197L167 198L166 197M143 198L144 199L143 198M151 198L152 199L151 198M156 198L157 199L156 198M52.3333 199.667L52.6667 200.333L52.3333 199.667M167 199L168 200L167 199M170.333 199.667L170.667 200.333L170.333 199.667M49.3333 200.667L49.6667 201.333L49.3333 200.667M59 200L60 201L59 200M144 200L145 201L144 200M152 200L153 201L152 200M157 200L158 201L157 200M163 200L164 201L163 200M145 201L146 202L145 201M168 201L169 202L168 201M51.3333 202.667L51.6667 203.333L51.3333 202.667M58 202L59 203L58 202M158 202L159 203L158 202M169 202L170 203L169 202M48.3333 203.667L48.6667 204.333L48.3333 203.667M146 203L147 204L146 203M154 203L155 204L154 203M165 203L166 204L165 203M170 203L171 204L170 203M57 204L58 205L57 204M147 204L148 205L147 204M159 204L160 205L159 204z"/>
<path style="fill:#ffff36; stroke:none;" d="M66 205L67 206L66 205z"/>
<path style="fill:#6aa08b; stroke:none;" d="M47.3333 206.667L47.6667 207.333L47.3333 206.667M50.3333 206.667L50.6667 207.333L50.3333 206.667M56 206L57 207L56 206M156 206L157 207L156 206M160 206L161 207L160 206M167 206L168 207L167 206M149 207L150 208L149 207M161 207L162 208L161 207M168 207L169 208L168 207M55 208L56 209L55 208M150 208L151 209L150 208M158 209L159 210L158 209M162 209L163 210L162 209M46.3333 210.667L46.6667 211.333L46.3333 210.667M159 210L160 211L159 210M163 210L164 211L163 210M42 211L42 214L43 214L42 211M49 211L49 216L50 216L49 211M54 211L55 212L54 211M160 211L161 212L160 211M172 212L173 213L172 212z"/>
<path style="fill:#ffff36; stroke:none;" d="M185 212L186 213L185 212z"/>
<path style="fill:#6aa08b; stroke:none;" d="M53 213L54 214L53 213M173 213L174 214L173 213M174 214L175 215L174 214M175 215L176 216L175 215z"/>
<path style="fill:#ffff36; stroke:none;" d="M34 216L35 217L34 216z"/>
<path style="fill:#6aa08b; stroke:none;" d="M43 216L44 217L43 216M45.3333 216.667L45.6667 217.333L45.3333 216.667M52 216L53 217L52 216M158 216L159 217L158 216M164 216L165 217L164 216M169 216L170 217L169 216M159 217L160 218L159 217M165 217L166 218L165 217M170 217L171 218L170 217M51.3333 218.667L51.6667 219.333L51.3333 218.667M172 218L173 219L172 218M162 219L163 220L162 219M174 219L175 220L174 219M169 220L170 221L169 220M176 220L177 221L176 220M50 221L51 222L50 221M165 221L166 222L165 221M170 221L171 222L170 221M178.667 221.333L179.333 221.667L178.667 221.333M181 221L182 222L181 221M49 222L50 223L49 222M167 222L168 223L167 222M171 222L172 223L171 222M169 223L170 224L169 223M171 224L172 225L171 224M173 225L174 226L173 225z"/>
<path style="fill:#ffff36; stroke:none;" d="M157 226L158 227L157 226M177 233L178 234L177 233z"/>
</svg>
